<svg width="40" height="40" viewBox="0 0 40 40" fill="none"
  xmlns="http://www.w3.org/2000/svg">
  <g id="floppy">
    <rect id="Rectangle 18" x="0.5" y="0.5" width="3" height="3" fill="black"/>
    <rect id="Rectangle 17" x="0.5" y="3.5" width="3" height="3" fill="black"/>
    <rect id="Rectangle 19" x="0.5" y="6.5" width="3" height="3" fill="black"/>
    <rect id="Rectangle 20" x="0.5" y="9.5" width="3" height="3" fill="black"/>
    <rect id="Rectangle 21" x="0.5" y="12.5" width="3" height="3" fill="black"/>
    <rect id="Rectangle 22" x="0.5" y="15.5" width="3" height="3" fill="black"/>
    <rect id="Rectangle 23" x="0.5" y="18.5" width="3" height="3" fill="black"/>
    <rect id="Rectangle 24" x="0.5" y="21.5" width="3" height="3" fill="black"/>
    <rect id="Rectangle 25" x="0.5" y="24.5" width="3" height="3" fill="black"/>
    <rect id="Rectangle 26" x="0.5" y="27.5" width="3" height="3" fill="black"/>
    <rect id="Rectangle 27" x="0.5" y="30.5" width="3" height="3" fill="black"/>
    <rect id="Rectangle 28" x="0.5" y="33.5" width="3" height="3" fill="black"/>
    <rect id="Rectangle 29" x="0.5" y="36.5" width="3" height="3" fill="black"/>
    <rect id="Rectangle 32" x="33.5" y="0.5" width="3" height="3" transform="rotate(90 33.5 0.5)" fill="black"/>
    <rect id="Rectangle 33" x="30.5" y="0.5" width="3" height="3" transform="rotate(90 30.5 0.5)" fill="black"/>
    <rect id="Rectangle 34" x="27.5" y="0.5" width="3" height="3" transform="rotate(90 27.5 0.5)" fill="black"/>
    <rect id="Rectangle 35" x="24.5" y="0.5" width="3" height="3" transform="rotate(90 24.5 0.5)" fill="black"/>
    <rect id="Rectangle 36" x="21.5" y="0.5" width="3" height="3" transform="rotate(90 21.5 0.5)" fill="black"/>
    <rect id="Rectangle 37" x="18.5" y="0.5" width="3" height="3" transform="rotate(90 18.5 0.5)" fill="black"/>
    <rect id="Rectangle 38" x="15.5" y="0.5" width="3" height="3" transform="rotate(90 15.5 0.5)" fill="black"/>
    <rect id="Rectangle 39" x="12.5" y="0.5" width="3" height="3" transform="rotate(90 12.5 0.5)" fill="black"/>
    <rect id="Rectangle 40" x="9.5" y="0.5" width="3" height="3" transform="rotate(90 9.5 0.5)" fill="black"/>
    <rect id="Rectangle 41" x="6.5" y="0.5" width="3" height="3" transform="rotate(90 6.5 0.5)" fill="black"/>
    <rect id="Rectangle 65" x="36.5" y="3.5" width="3" height="3" transform="rotate(90 36.5 3.5)" fill="black"/>
    <rect id="Rectangle 85" x="9.5" y="6.5" width="3" height="3" transform="rotate(90 9.5 6.5)" fill="black"/>
    <rect id="Rectangle 176" x="9.5" y="3.5" width="3" height="3" transform="rotate(90 9.5 3.5)" fill="black"/>
    <rect id="Rectangle 96" x="9.5" y="9.5" width="3" height="3" transform="rotate(90 9.5 9.5)" fill="black"/>
    <rect id="Rectangle 177" x="30.5" y="6.5" width="3" height="3" transform="rotate(90 30.5 6.5)" fill="black"/>
    <rect id="Rectangle 178" x="30.5" y="3.5" width="3" height="3" transform="rotate(90 30.5 3.5)" fill="black"/>
    <rect id="Rectangle 179" x="30.5" y="9.5" width="3" height="3" transform="rotate(90 30.5 9.5)" fill="black"/>
    <rect id="Rectangle 180" x="24.5" y="6.5" width="3" height="3" transform="rotate(90 24.5 6.5)" fill="black"/>
    <rect id="Rectangle 181" x="24.5" y="3.5" width="3" height="3" transform="rotate(90 24.5 3.5)" fill="black"/>
    <rect id="Rectangle 182" x="24.5" y="9.5" width="3" height="3" transform="rotate(90 24.5 9.5)" fill="black"/>
    <rect id="Rectangle 100" x="30.5" y="12.5" width="3" height="3" transform="rotate(90 30.5 12.5)" fill="black"/>
    <rect id="Rectangle 101" x="27.5" y="12.5" width="3" height="3" transform="rotate(90 27.5 12.5)" fill="black"/>
    <rect id="Rectangle 102" x="24.5" y="12.5" width="3" height="3" transform="rotate(90 24.5 12.5)" fill="black"/>
    <rect id="Rectangle 103" x="21.5" y="12.5" width="3" height="3" transform="rotate(90 21.5 12.5)" fill="black"/>
    <rect id="Rectangle 104" x="18.5" y="12.5" width="3" height="3" transform="rotate(90 18.5 12.5)" fill="black"/>
    <rect id="Rectangle 105" x="15.5" y="12.5" width="3" height="3" transform="rotate(90 15.5 12.5)" fill="black"/>
    <rect id="Rectangle 106" x="12.5" y="12.5" width="3" height="3" transform="rotate(90 12.5 12.5)" fill="black"/>
    <rect id="Rectangle 107" x="9.5" y="12.5" width="3" height="3" transform="rotate(90 9.5 12.5)" fill="black"/>
    <rect id="Rectangle 132" x="33.5" y="21.5" width="3" height="3" transform="rotate(90 33.5 21.5)" fill="black"/>
    <rect id="Rectangle 133" x="30.5" y="21.5" width="3" height="3" transform="rotate(90 30.5 21.5)" fill="black"/>
    <rect id="Rectangle 134" x="27.5" y="21.5" width="3" height="3" transform="rotate(90 27.5 21.5)" fill="black"/>
    <rect id="Rectangle 135" x="24.5" y="21.5" width="3" height="3" transform="rotate(90 24.5 21.5)" fill="black"/>
    <rect id="Rectangle 136" x="21.5" y="21.5" width="3" height="3" transform="rotate(90 21.5 21.5)" fill="black"/>
    <rect id="Rectangle 137" x="18.5" y="21.5" width="3" height="3" transform="rotate(90 18.5 21.5)" fill="black"/>
    <rect id="Rectangle 138" x="15.5" y="21.5" width="3" height="3" transform="rotate(90 15.5 21.5)" fill="black"/>
    <rect id="Rectangle 139" x="12.5" y="21.5" width="3" height="3" transform="rotate(90 12.5 21.5)" fill="black"/>
    <rect id="Rectangle 140" x="9.5" y="21.5" width="3" height="3" transform="rotate(90 9.5 21.5)" fill="black"/>
    <rect id="Rectangle 143" x="33.5" y="24.5" width="3" height="3" transform="rotate(90 33.5 24.5)" fill="black"/>
    <rect id="Rectangle 151" x="9.5" y="24.5" width="3" height="3" transform="rotate(90 9.5 24.5)" fill="black"/>
    <rect id="Rectangle 154" x="33.5" y="27.5" width="3" height="3" transform="rotate(90 33.5 27.5)" fill="black"/>
    <rect id="Rectangle 162" x="9.5" y="27.5" width="3" height="3" transform="rotate(90 9.5 27.5)" fill="black"/>
    <rect id="Rectangle 165" x="33.5" y="30.5" width="3" height="3" transform="rotate(90 33.5 30.5)" fill="black"/>
    <rect id="Rectangle 173" x="9.5" y="30.5" width="3" height="3" transform="rotate(90 9.5 30.5)" fill="black"/>
    <rect id="Rectangle 174" x="9.5" y="33.5" width="3" height="3" transform="rotate(90 9.5 33.5)" fill="black"/>
    <rect id="Rectangle 175" x="33.5" y="33.5" width="3" height="3" transform="rotate(90 33.5 33.5)" fill="black"/>
    <rect id="Rectangle 54" x="36.5" y="36.5" width="3" height="3" transform="rotate(90 36.5 36.5)" fill="black"/>
    <rect id="Rectangle 55" x="33.5" y="36.5" width="3" height="3" transform="rotate(90 33.5 36.5)" fill="black"/>
    <rect id="Rectangle 56" x="30.5" y="36.5" width="3" height="3" transform="rotate(90 30.5 36.5)" fill="black"/>
    <rect id="Rectangle 57" x="27.5" y="36.5" width="3" height="3" transform="rotate(90 27.5 36.5)" fill="black"/>
    <rect id="Rectangle 58" x="24.5" y="36.5" width="3" height="3" transform="rotate(90 24.5 36.5)" fill="black"/>
    <rect id="Rectangle 59" x="21.5" y="36.5" width="3" height="3" transform="rotate(90 21.5 36.5)" fill="black"/>
    <rect id="Rectangle 60" x="18.5" y="36.5" width="3" height="3" transform="rotate(90 18.5 36.5)" fill="black"/>
    <rect id="Rectangle 61" x="15.5" y="36.5" width="3" height="3" transform="rotate(90 15.5 36.5)" fill="black"/>
    <rect id="Rectangle 62" x="12.5" y="36.5" width="3" height="3" transform="rotate(90 12.5 36.5)" fill="black"/>
    <rect id="Rectangle 63" x="9.5" y="36.5" width="3" height="3" transform="rotate(90 9.5 36.5)" fill="black"/>
    <rect id="Rectangle 64" x="6.5" y="36.5" width="3" height="3" transform="rotate(90 6.5 36.5)" fill="black"/>
    <rect id="Rectangle 42" x="39.5" y="39.5" width="3" height="3" transform="rotate(-180 39.5 39.5)" fill="black"/>
    <rect id="Rectangle 43" x="39.5" y="36.5" width="3" height="3" transform="rotate(-180 39.5 36.5)" fill="black"/>
    <rect id="Rectangle 44" x="39.5" y="33.5" width="3" height="3" transform="rotate(-180 39.5 33.5)" fill="black"/>
    <rect id="Rectangle 45" x="39.5" y="30.5" width="3" height="3" transform="rotate(-180 39.5 30.5)" fill="black"/>
    <rect id="Rectangle 46" x="39.5" y="27.5" width="3" height="3" transform="rotate(-180 39.5 27.5)" fill="black"/>
    <rect id="Rectangle 47" x="39.5" y="24.5" width="3" height="3" transform="rotate(-180 39.5 24.5)" fill="black"/>
    <rect id="Rectangle 48" x="39.5" y="21.5" width="3" height="3" transform="rotate(-180 39.5 21.5)" fill="black"/>
    <rect id="Rectangle 49" x="39.5" y="18.5" width="3" height="3" transform="rotate(-180 39.5 18.5)" fill="black"/>
    <rect id="Rectangle 50" x="39.5" y="15.5" width="3" height="3" transform="rotate(-180 39.5 15.5)" fill="black"/>
    <rect id="Rectangle 51" x="39.5" y="12.5" width="3" height="3" transform="rotate(-180 39.5 12.5)" fill="black"/>
    <rect id="Rectangle 52" x="39.5" y="9.5" width="3" height="3" transform="rotate(-180 39.5 9.5)" fill="black"/>
  </g>
</svg>
